<?xml version="1.0" standalone="no"?>
<!DOCTYPE svg PUBLIC "-//W3C//DTD SVG 20010904//EN"
 "http://www.w3.org/TR/2001/REC-SVG-20010904/DTD/svg10.dtd">
<svg version="1.0" xmlns="http://www.w3.org/2000/svg"
 width="300.000000pt" height="300.000000pt" viewBox="0 0 300.000000 300.000000"
 preserveAspectRatio="xMidYMid meet">
<metadata>
Created by potrace 1.14, written by Peter Selinger 2001-2017
</metadata>
<g transform="translate(0.000000,300.000000) scale(0.100000,-0.100000)"
fill="#000000" stroke="none">
<path d="M1208 2669 c-99 -15 -193 -87 -244 -189 -24 -48 -28 -70 -32 -166 -7
-169 29 -261 130 -334 75 -55 110 -59 479 -62 l336 -3 69 35 c125 64 174 158
174 336 0 160 -37 245 -138 319 -78 57 -131 65 -448 68 -155 1 -301 -1 -326
-4z m123 -186 c80 -67 80 -199 0 -266 -69 -57 -164 -18 -191 77 -15 56 -7 109
26 159 41 63 110 76 165 30z m536 -15 c57 -59 68 -129 33 -205 -58 -130 -208
-98 -235 50 -26 137 115 245 202 155z"/>
<path d="M1210 2453 c-69 -62 -57 -188 21 -229 26 -13 32 -13 59 1 78 40 93
160 29 225 -38 37 -70 38 -109 3z"/>
<path d="M1735 2446 c-33 -33 -49 -96 -36 -143 14 -48 57 -93 92 -93 35 0 86
56 95 106 20 109 -83 198 -151 130z"/>
<path d="M831 2273 c0 -28 -4 -59 -8 -69 -6 -16 -7 -16 -14 2 -7 18 -8 18 -8
-2 -1 -12 7 -32 17 -45 10 -13 27 -46 37 -74 33 -90 101 -164 186 -202 22 -9
38 -19 36 -22 -2 -4 -11 -23 -20 -44 l-18 -38 -23 43 c-56 106 -172 105 -227
-4 -25 -48 -29 -142 -8 -164 19 -19 63 -7 53 15 -15 37 -19 77 -9 98 16 37 22
27 17 -28 -3 -37 -2 -50 7 -45 7 4 11 0 11 -12 0 -10 9 -27 21 -38 13 -12 19
-14 17 -5 -2 7 3 16 10 18 7 3 12 -4 12 -16 0 -15 -6 -21 -21 -21 -15 0 -20
-5 -17 -22 2 -13 11 -24 21 -26 22 -4 79 21 97 43 7 8 15 15 19 15 3 0 7 -63
7 -139 l2 -139 -29 -6 c-27 -5 -29 -8 -29 -56 0 -27 5 -50 10 -50 6 0 10 -12
10 -27 0 -33 21 -93 38 -112 9 -9 11 -26 6 -55 -13 -79 -170 -505 -217 -589
-21 -38 -61 -67 -91 -67 -20 0 -76 49 -76 67 0 10 -6 12 -19 8 -15 -5 -23 2
-36 30 -10 19 -22 35 -27 35 -5 0 -6 4 -3 10 3 5 1 18 -4 27 -19 32 -13 -28 8
-90 27 -78 57 -115 104 -128 31 -8 45 -7 75 8 54 27 93 85 151 232 51 126 54
131 82 131 24 0 29 -4 29 -23 0 -13 9 -32 20 -42 11 -10 20 -24 20 -31 0 -11
113 -44 152 -44 7 0 27 -8 43 -17 17 -9 48 -19 70 -22 36 -5 41 -9 47 -41 3
-19 4 -3 2 35 -8 113 -14 145 -30 145 -8 0 -14 5 -14 10 0 6 7 10 15 10 14 0
15 16 9 120 l-7 120 37 36 c41 40 79 54 146 54 68 0 119 -18 157 -55 l35 -34
-3 -128 c-2 -70 -6 -132 -10 -138 -4 -5 -9 -40 -11 -78 l-4 -67 36 6 c19 4 42
12 50 19 8 6 47 17 85 24 107 20 115 22 115 36 0 6 9 20 20 30 11 10 20 29 20
42 0 18 5 23 25 23 14 0 25 -5 25 -11 0 -6 23 -70 52 -142 62 -158 106 -215
174 -224 66 -9 154 50 154 103 0 10 -3 14 -6 11 -4 -3 -15 -2 -25 3 -14 8 -21
3 -38 -24 -31 -49 -76 -61 -119 -30 -23 16 -63 87 -89 158 -128 352 -170 497
-155 530 5 12 15 41 22 66 6 25 16 59 21 76 5 17 9 46 9 66 0 28 -5 37 -22 41
-12 4 -25 1 -29 -5 -5 -7 -63 -13 -161 -16 l-153 -4 -1 58 c-1 168 -124 301
-230 251 -65 -31 -134 -169 -134 -267 l0 -39 -92 6 c-129 7 -160 15 -167 38
-10 39 -4 219 7 223 7 2 12 10 12 18 0 9 -4 12 -10 9 -5 -3 -10 1 -10 9 0 9 6
13 13 10 16 -6 41 42 31 58 -4 7 -2 8 4 4 8 -5 12 3 12 26 0 18 4 38 8 45 13
20 151 52 282 64 138 13 300 6 397 -16 60 -14 64 -14 106 8 24 12 42 27 40 33
-2 6 16 19 41 28 70 27 176 132 176 174 0 12 -49 -10 -59 -26 -12 -19 -162
-111 -208 -127 -62 -22 -364 -31 -589 -17 -217 13 -267 36 -383 173 -55 65
-75 115 -104 254 -3 11 -5 -3 -6 -32z m179 -578 c0 -3 -4 -3 -10 0 -5 3 -10
-1 -10 -10 0 -9 -4 -13 -10 -10 -5 3 -10 20 -10 37 l0 32 20 -22 c11 -12 20
-24 20 -27z m-33 -64 c10 -16 9 -18 -8 -14 -10 3 -19 12 -19 19 0 20 13 17 27
-5z m672 -327 c8 -7 -113 -2 -164 6 -34 5 -16 6 55 3 58 -3 107 -7 109 -9z
m-79 -229 c0 -11 -12 -15 -50 -15 -38 0 -50 4 -50 15 0 11 12 15 50 15 38 0
50 -4 50 -15z m-535 -213 c-16 -16 -23 17 -12 58 l12 45 3 -49 c2 -26 1 -51
-3 -54z m95 46 c1 -22 1 -22 15 -5 10 15 21 17 44 12 29 -6 31 -9 31 -56 l0
-49 -42 20 c-24 10 -60 22 -80 25 -33 5 -38 9 -38 34 0 35 6 41 42 41 22 0 28
-5 28 -22z m755 -20 c6 -25 3 -34 -11 -44 -11 -8 -24 -18 -31 -24 -23 -20 -33
-10 -33 34 0 39 3 45 28 54 40 15 40 15 47 -20z m99 13 c10 -11 16 -28 13 -38
-3 -15 -6 -14 -15 7 -10 24 -11 24 -11 3 -1 -16 -8 -23 -21 -24 -11 -1 -26 -2
-32 -3 -8 -1 -13 13 -13 37 -1 35 1 37 31 37 18 0 38 -8 48 -19z m-839 -281
c3 -5 1 -10 -4 -10 -6 0 -11 5 -11 10 0 6 2 10 4 10 3 0 8 -4 11 -10z"/>
<path d="M1080 911 c0 -5 7 -11 15 -15 9 -3 15 0 15 9 0 8 -7 15 -15 15 -8 0
-15 -4 -15 -9z"/>
<path d="M1920 900 c0 -5 9 -10 20 -10 11 0 20 5 20 10 0 6 -9 10 -20 10 -11
0 -20 -4 -20 -10z"/>
<path d="M267 2214 c-3 -4 11 -30 31 -60 29 -41 43 -53 63 -54 35 0 45 -34 17
-55 -20 -13 -23 -11 -57 37 -46 65 -62 75 -98 62 -25 -9 -28 -14 -24 -49 5
-66 28 -157 50 -207 26 -56 95 -128 159 -165 26 -14 59 -39 74 -55 24 -25 34
-28 89 -28 34 0 60 2 58 5 -5 5 -44 13 -68 14 -11 1 -11 5 2 19 10 10 17 26
17 35 0 9 5 19 10 22 6 3 10 -2 10 -11 0 -14 8 -10 35 16 45 44 56 32 16 -18
-30 -38 -39 -62 -23 -62 4 1 22 21 40 45 28 39 31 47 20 65 -7 11 -18 20 -25
20 -7 0 -13 7 -13 16 0 10 -10 4 -27 -18 -16 -18 -32 -35 -36 -37 -5 -2 -12
-13 -17 -26 -15 -38 -55 -40 -124 -5 -34 17 -78 47 -99 67 -44 40 -47 35 55
89 83 44 158 121 158 162 0 35 -49 113 -81 129 -77 38 -123 53 -162 53 -24 0
-46 -3 -50 -6z"/>
<path d="M2225 2165 c-5 -11 -10 -24 -13 -30 -3 -5 3 -3 13 7 9 9 15 22 12 30
-3 9 -7 7 -12 -7z"/>
<path d="M572 1908 c-7 -7 -12 -23 -12 -37 0 -23 1 -24 20 -6 11 10 20 26 20
37 0 21 -11 23 -28 6z"/>
<path d="M2201 1791 c-15 -27 18 -41 49 -21 13 8 12 11 -5 24 -26 20 -32 20
-44 -3z"/>
<path d="M705 1781 c-10 -18 17 -23 33 -7 15 15 15 16 -5 16 -12 0 -24 -4 -28
-9z"/>
<path d="M2000 1751 c0 -11 5 -23 10 -26 6 -3 10 -22 10 -41 0 -30 3 -34 25
-34 14 0 25 1 25 3 0 1 -11 24 -25 51 -19 38 -22 52 -13 58 9 5 6 8 -9 8 -16
0 -23 -6 -23 -19z"/>
<path d="M704 1666 c-9 -10 -3 -23 24 -56 39 -46 85 -71 129 -69 24 1 22 3
-12 11 -52 14 -95 45 -95 68 0 11 -8 24 -17 29 -16 9 -16 12 -3 21 13 9 13 10
0 9 -8 0 -20 -6 -26 -13z"/>
<path d="M2263 1569 c-18 -9 -30 -19 -26 -22 3 -4 -9 -2 -26 3 -28 8 -31 7
-21 -5 21 -25 77 -19 96 10 21 32 17 35 -23 14z"/>
<path d="M2286 1472 c-15 -18 -15 -19 14 -19 33 0 38 8 17 26 -11 8 -18 7 -31
-7z"/>
<path d="M2340 1336 c0 -25 15 -64 29 -76 3 -3 25 -26 49 -52 23 -26 42 -42
42 -34 0 13 -65 118 -101 165 l-19 24 0 -27z"/>
<path d="M2696 1288 c-10 -5 -56 -39 -103 -74 -46 -35 -88 -64 -92 -64 -4 0
-17 -13 -29 -29 l-21 -29 38 -40 c35 -36 124 -85 175 -97 12 -3 32 3 45 14
l24 19 -37 51 c-40 54 -45 58 -64 39 -15 -15 -45 9 -37 30 3 8 0 21 -7 29 -16
20 25 64 44 45 7 -7 20 -12 29 -12 26 0 35 -38 13 -54 -15 -12 -14 -17 22 -64
21 -28 43 -51 47 -51 19 -2 57 33 57 53 -1 32 -36 160 -54 193 -27 50 -30 52
-50 41z"/>
<path d="M694 1164 c3 -9 6 -18 6 -21 0 -3 7 0 15 7 13 11 13 15 3 21 -21 13
-31 10 -24 -7z"/>
<path d="M2318 1148 c9 -9 15 -9 24 0 9 9 7 12 -12 12 -19 0 -21 -3 -12 -12z"/>
<path d="M2440 1120 c-9 -6 -10 -10 -3 -10 6 0 15 5 18 10 8 12 4 12 -15 0z"/>
<path d="M580 967 c0 -7 37 -47 44 -47 4 0 6 10 4 23 -2 14 -11 23 -25 25 -13
2 -23 2 -23 -1z"/>
<path d="M1460 946 c0 -35 10 -41 68 -41 54 1 57 2 60 28 3 27 3 27 -62 27
-50 0 -66 -3 -66 -14z"/>
<path d="M2410 935 c0 -8 4 -15 9 -15 5 0 14 7 21 15 10 13 9 15 -9 15 -12 0
-21 -6 -21 -15z"/>
<path d="M551 750 c1 -23 3 -28 6 -12 2 12 8 22 12 22 4 0 16 6 26 14 17 12
16 13 -13 12 -30 -1 -32 -3 -31 -36z"/>
<path d="M1460 710 l0 -30 65 0 65 0 0 30 0 30 -65 0 -65 0 0 -30z"/>
<path d="M541 665 c0 -11 4 -27 9 -35 9 -13 10 -13 9 0 0 8 -4 24 -9 35 l-9
20 0 -20z"/>
<path d="M1372 420 c0 -14 2 -19 5 -12 2 6 2 18 0 25 -3 6 -5 1 -5 -13z"/>
<path d="M1382 350 c0 -19 2 -27 5 -17 2 9 2 25 0 35 -3 9 -5 1 -5 -18z"/>
<path d="M1392 285 c0 -16 2 -22 5 -12 2 9 2 23 0 30 -3 6 -5 -1 -5 -18z"/>
<path d="M1425 225 c15 -101 19 -105 115 -105 44 0 53 9 69 72 15 63 15 62
-18 39 -47 -34 -123 -25 -159 18 -11 14 -12 10 -7 -24z"/>
<path d="M1401 224 c0 -11 3 -14 6 -6 3 7 2 16 -1 19 -3 4 -6 -2 -5 -13z"/>
</g>
</svg>
